<?xml version="1.0" encoding="utf-8"?>
<!-- Generator: Adobe Illustrator 22.1.0, SVG Export Plug-In . SVG Version: 6.00 Build 0)  -->
<svg version="1.1" id="Layer_1" xmlns="http://www.w3.org/2000/svg" xmlns:xlink="http://www.w3.org/1999/xlink" x="0px" y="0px"
	 viewBox="0 0 1212 254" style="enable-background:new 0 0 1212 254;" xml:space="preserve">
<style type="text/css">
	.st0{fill:#03509E;}
	.st1{fill:none;stroke:#00539F;stroke-width:0.25;stroke-miterlimit:3.864;}
	.st2{fill:#9F358B;}
	.st3{fill:none;stroke:#A63493;stroke-width:0.25;stroke-miterlimit:3.864;}
	.st4{fill:#009EAF;}
	.st5{fill:none;stroke:#00A2B2;stroke-width:0.25;stroke-miterlimit:3.864;}
	.st6{fill:#E50447;}
	.st7{fill:none;stroke:#ED174C;stroke-width:0.25;stroke-miterlimit:3.864;}
	.st8{fill:#1D1D1B;}
</style>
<g>
	<path class="st0" d="M90.6,144.2c7.3,7.8,19.5,8.3,27.4,1l25.7-23.8l-16.2-17.4l-39.9,37L90.6,144.2z"/>
	<path class="st1" d="M90.6,144.2c7.3,7.8,19.5,8.3,27.4,1l25.7-23.8l-16.2-17.4l-39.9,37L90.6,144.2z"/>
	<path class="st0" d="M51.4,101.9l16.2,17.5L85,103.3L71.8,89l43.9-40.7l49.4,53.2l3.3-3.1c7.8-7.3,8.3-19.5,1-27.4l-39.1-42.2
		c-7.3-7.9-19.5-8.3-27.4-1L52.5,74.5C44.6,81.8,44.1,94.1,51.4,101.9"/>
	<path class="st1" d="M51.4,101.9l16.2,17.5L85,103.3L71.8,89l43.9-40.7l49.4,53.2l3.3-3.1c7.8-7.3,8.3-19.5,1-27.4l-39.1-42.2
		c-7.3-7.9-19.5-8.3-27.4-1L52.5,74.5C44.6,81.8,44.1,94.1,51.4,101.9z"/>
	<path class="st2" d="M168.3,176.4c7.8-7.3,8.3-19.5,1-27.4l-23.8-25.7L128,139.4l37,39.9L168.3,176.4z"/>
	<path class="st3" d="M168.3,176.4c7.8-7.3,8.3-19.5,1-27.4l-23.8-25.7L128,139.4l37,39.9L168.3,176.4z"/>
	<path class="st2" d="M126,215.5l17.5-16.2l-16.2-17.4l-14.3,13.2l-40.7-43.9l53.2-49.4l-3.1-3.3c-7.3-7.9-19.5-8.3-27.4-1
		l-42.2,39.1c-7.9,7.3-8.3,19.5-1,27.4l46.8,50.4C105.9,222.3,118.2,222.8,126,215.5"/>
	<path class="st3" d="M126,215.5l17.5-16.2l-16.2-17.4l-14.3,13.2l-40.7-43.9l53.2-49.4l-3.1-3.3c-7.3-7.9-19.5-8.3-27.4-1
		l-42.2,39.1c-7.9,7.3-8.3,19.5-1,27.4l46.8,50.4C105.9,222.3,118.2,222.8,126,215.5z"/>
	<path class="st4" d="M200.5,98.7c-7.3-7.9-19.5-8.3-27.4-1l-25.7,23.8l16.2,17.4l39.9-37L200.5,98.7z"/>
	<path class="st5" d="M200.5,98.7c-7.3-7.9-19.5-8.3-27.4-1l-25.7,23.8l16.2,17.4l39.9-37L200.5,98.7z"/>
	<path class="st4" d="M239.6,140.9l-16.2-17.5L206,139.6l13.2,14.3l-43.9,40.7L126,141.3l-3.3,3.1c-7.8,7.3-8.3,19.5-1,27.4
		l39.1,42.2c7.3,7.9,19.5,8.3,27.4,1l50.4-46.8C246.5,161,246.9,148.8,239.6,140.9"/>
	<path class="st5" d="M239.6,140.9l-16.2-17.5L206,139.6l13.2,14.3l-43.9,40.7L126,141.3l-3.3,3.1c-7.8,7.3-8.3,19.5-1,27.4
		l39.1,42.2c7.3,7.9,19.5,8.3,27.4,1l50.4-46.8C246.5,161,246.9,148.8,239.6,140.9z"/>
	<path class="st6" d="M122.8,66.5c-7.8,7.3-8.3,19.5-1,27.4l23.8,25.7l17.4-16.2l-37-39.9L122.8,66.5z"/>
	<path class="st7" d="M122.8,66.5c-7.8,7.3-8.3,19.5-1,27.4l23.8,25.7l17.4-16.2l-37-39.9L122.8,66.5z"/>
	<path class="st6" d="M165,27.3l-17.5,16.2l16.2,17.4L178,47.7l40.7,43.9L165.5,141l3.1,3.3c7.3,7.8,19.5,8.3,27.4,1l42.2-39.1
		c7.8-7.3,8.3-19.5,1-27.4l-46.8-50.4C185.1,20.5,172.9,20,165,27.3"/>
	<path class="st7" d="M165,27.3l-17.5,16.2l16.2,17.4L178,47.7l40.7,43.9L165.5,141l3.1,3.3c7.3,7.8,19.5,8.3,27.4,1l42.2-39.1
		c7.8-7.3,8.3-19.5,1-27.4l-46.8-50.4C185.1,20.5,172.9,20,165,27.3z"/>
</g>
<g>
	<path class="st8" d="M267.3,31.6V101c0,16.5,11.8,31.6,28.9,31.6c14.4,0,28.6-13.3,28.6-31.6c0-18.3-14.2-31.6-28.6-31.6
		c-9.4,0-16,3.9-22.2,10.3V73c4.3-3.6,11.2-9,22.2-9c19.3,0,34.6,15.6,34.6,37c0,21.4-15.3,37-34.6,37c-19.3,0-34.6-15.6-34.6-37
		V31.6H267.3z"/>
	<path class="st8" d="M347,65.5v42.6c0,14.8,10.3,24.6,22.8,24.6c12.5,0,22.8-9.7,22.8-24.6V65.5h5.7v43.3
		c0,17.5-12.6,29.2-28.5,29.2c-15.9,0-28.5-11.7-28.5-29.2V65.5H347z"/>
	<path class="st8" d="M417.9,40.9c2.5,0,4.5,2,4.5,4.5c0,2.5-2,4.5-4.5,4.5s-4.5-2-4.5-4.5C413.4,42.8,415.3,40.9,417.9,40.9z
		 M415,136.6V65.5h5.7v71.1H415z"/>
	<path class="st8" d="M439.5,136.6v-105h5.7v105H439.5z"/>
	<path class="st8" d="M526.6,31.6V101c0,21.4-15.3,37-34.6,37c-19.3,0-34.6-15.6-34.6-37c0-21.4,15.3-37,34.6-37
		c11,0,17.8,5.4,22.2,9v6.8c-6.1-6.5-12.7-10.3-22.2-10.3c-14.4,0-28.6,13.3-28.6,31.6c0,18.3,14.2,31.6,28.6,31.6
		c17.1,0,28.9-15.1,28.9-31.6V31.6H526.6z"/>
	<path class="st8" d="M545.9,40.9c2.5,0,4.5,2,4.5,4.5c0,2.5-2,4.5-4.5,4.5c-2.5,0-4.5-2-4.5-4.5C541.4,42.8,543.3,40.9,545.9,40.9z
		 M543,136.6V65.5h5.7v71.1H543z"/>
	<path class="st8" d="M616.2,136.6V94c0-14.8-10.3-24.6-22.8-24.6c-12.4,0-22.8,9.7-22.8,24.6v42.6h-5.7V93.2
		c0-17.5,12.6-29.2,28.5-29.2c15.9,0,28.5,11.7,28.5,29.2v43.3H616.2z"/>
	<path class="st8" d="M649.3,159.5c5.4,2.1,12,3.6,18,3.6c19.2,0,30.7-8.7,30.7-33.6V101c0-16.5-11.8-31.6-28.9-31.6
		c-14.4,0-28.6,13.3-28.6,31.6c0,18.3,14.2,31.6,28.6,31.6c9.5,0,16-3.9,22.2-10.3v6.8c-4.3,3.6-11.2,9-22.2,9
		c-19.3,0-34.6-15.6-34.6-37c0-21.4,15.3-37,34.6-37c19.3,0,34.6,15.6,34.6,37v32.4c0,22.2-15,35.1-35.7,35.1
		c-7,0-13.9-1.2-20.5-3.6L649.3,159.5z"/>
</g>
<path class="st6" d="M760.1,77c-14.9-4.2-27.7-7.8-27.7-21.3c0-11.2,6.2-16,20.7-16h37.2V29.2h-39.6c-18.3,0-29.7,9.9-29.7,26
	c0,22.7,18.7,27.9,35.3,32.5c14.7,4.1,28.6,7.9,28.6,23.3c0,11.3-8.7,17.5-24.6,17.5H721V139h40.2c22.3,0,35.1-10.6,35.1-29
	C796.3,87.3,777.1,81.9,760.1,77z"/>
<path class="st6" d="M896.3,27.4c-7.1,0-9,2.1-12.5,14.3L859,125.8l-24.8-84.1c-3.5-12.2-5.4-14.3-12.5-14.3
	c-8.4,0-9.5,8.1-10.2,12.9L798,139h11.2l13.3-98.5c0,0.1,0.1,0.2,0.1,0.3l25.2,86.1c2.8,9.9,4.2,13.3,11.2,13.3
	c7,0,8.3-3.4,11.2-13.3l25.2-86.1c0-0.1,0-0.2,0.1-0.3l13.3,98.5H920l-13.4-98.8C905.8,35.4,904.7,27.4,896.3,27.4z"/>
<polygon class="st6" points="1083.2,29.2 1083.2,39.4 1113.1,39.4 1113.1,139 1124.2,139 1124.2,39.4 1154.1,39.4 1154.1,29.2 "/>
<g>
	<g>
		<path class="st8" d="M1142.9,138c-5.6,0-10.1-4.6-10.1-10.3c0-5.7,4.5-10.3,10.1-10.3c5.6,0,10.1,4.6,10.1,10.3
			C1153.1,133.4,1148.5,138,1142.9,138z M1142.9,118.9c-2.3,0-4.4,0.9-6,2.6c-1.6,1.7-2.4,3.9-2.4,6.2c0,2.3,0.9,4.5,2.4,6.2
			c1.6,1.7,3.7,2.6,6,2.6c4.7,0,8.5-3.9,8.5-8.8C1151.4,122.9,1147.6,118.9,1142.9,118.9z M1148.3,133.9h-2l-3.4-5.5h-2.5v5.5h-1.5
			v-12.2h4.6c2.6,0,3.9,1.1,3.9,3.3c0,2.3-1.4,3-2.8,3.3L1148.3,133.9z M1140.4,127h2.1c2,0,3.4-0.1,3.4-1.9c0-1.2-0.9-1.8-2.6-1.8
			h-2.8V127z"/>
	</g>
</g>
<path class="st6" d="M1067.9,83c8.7-5.1,13.1-13.8,13.1-25.9c0-17.5-14.2-29.7-34.5-29.7c-20.4,0-33.6,13.9-33.6,35.4V139h11.1V91.6
	V77.8V62.5c0-15.4,8.4-24.6,22.5-24.6c13.6,0,23.1,8.1,23.1,19.8c0,13.5-9.1,21.3-24.9,21.3h-15.5v10.2h20
	c14.5,0,22.5,6.3,22.5,17.7V139h11.4v-31.2C1083.1,95.9,1077.6,87,1067.9,83z"/>
<path class="st6" d="M963.5,27.4c-23.8,0-38.6,14.8-38.6,38.6V139h11.1V64c0-16.1,10.5-26.1,27.4-26.1c16.9,0,27.4,10,27.4,26.1
	v13.5h-49.5v10.2H991V139h11.1V65.9C1002.1,42.2,987.3,27.4,963.5,27.4z"/>
<g>
	<path class="st4" d="M302,223.3c-0.8,0.7-2.1,1.3-3.9,2c-3.2,1.2-6.7,1.8-10.5,1.8c-6,0-10.9-2-14.6-5.8c-3.9-4-5.9-9.5-5.9-16.3
		c0-7,2.1-12.7,6.2-16.9c3.9-4,8.8-6,14.8-6c3.2,0,6.2,0.5,8.9,1.5c1.8,0.7,3.1,1.4,3.8,2.1l-1.9,3.1c-2.6-1.9-6.1-2.8-10.5-2.8
		c-4.9,0-8.9,1.6-12.1,4.9c-3.4,3.5-5.1,8-5.1,13.7c0,5.7,1.5,10.3,4.5,13.7c3,3.4,7.1,5.2,12.1,5.2c2.7,0,5.2-0.3,7.3-1
		c0.9-0.3,1.7-0.7,2.6-1v-12.7h-9.9v-3.4h14V223.3z"/>
	<path class="st4" d="M335.7,209.3c0,0.1,0,0.4-0.1,0.9c0,0.5-0.1,0.9-0.1,1.2h-22.4c0,3.6,0.9,6.4,2.8,8.6c1.9,2.2,4.5,3.2,7.9,3.2
		c2.6,0,5.7-0.8,9-2.5l1.8,3c-0.3,0.3-1.3,0.9-3.2,1.7c-2.6,1-5.2,1.5-7.9,1.5c-4.5,0-8-1.5-10.6-4.4c-2.6-2.9-3.9-6.8-3.9-11.6
		c0-5,1.3-9,3.9-12.1c2.6-3,6-4.5,10.4-4.5c3.7,0,6.6,1.3,8.8,3.9C334.6,200.8,335.7,204.5,335.7,209.3z M331.7,208
		c0-2.7-0.6-5.1-1.8-7c-1.5-2.3-3.7-3.5-6.4-3.5c-2.8,0-5.1,1-7,2.9c-1.9,1.9-2.9,4.5-3.1,7.7H331.7z"/>
	<path class="st4" d="M359.9,194.6l-0.9,3.2c-0.9-0.1-1.8-0.2-2.5-0.2c-2,0-3.7,0.5-5.3,1.4c-1.2,0.7-2.2,1.5-3.1,2.5
		c-0.4,0.5-0.8,1-1.1,1.6v23h-3.9V195h3.7v4.1c2.7-3.3,6-4.9,9.9-4.9C357.8,194.1,358.9,194.3,359.9,194.6z"/>
	<path class="st4" d="M408.4,226.2h-3.9v-18.6c0-4.2-0.6-7-1.8-8.2c-1.1-1.1-2.6-1.6-4.7-1.6c-3.1,0-6.2,1-9.5,2.9
		c0.4,0.8,0.6,3.3,0.6,7.4v18.1h-3.9v-17.1c0-3.1-0.1-5.2-0.2-6.1c-0.2-1.6-0.7-2.9-1.5-3.6c-1.1-1.1-2.6-1.6-4.5-1.6
		c-3.2,0-6.3,1-9.3,3v25.5h-3.9V195h3.7v2.3c3.4-2,6.7-3.1,9.9-3.1c3.4,0,6,1.2,7.7,3.6c3.9-2.4,7.7-3.6,11.3-3.6
		c2.9,0,5.2,0.9,7,2.6c1.4,1.4,2.3,3.2,2.7,5.5c0.2,1.3,0.3,3.8,0.3,7.4V226.2z"/>
	<path class="st4" d="M438.5,226.2H435v-2.3c-1,0.5-2,1-3,1.6c-2.3,1-4.7,1.4-7,1.4c-3,0-5.4-0.9-7.2-2.6c-1.8-1.8-2.8-4-2.8-6.9
		c0-6.8,6-10.2,18-10.2h1.6v-1.2c0-3.3-0.5-5.5-1.6-6.6c-1.2-1.2-3.1-1.8-5.9-1.8c-2.9,0-5.7,0.8-8.6,2.5l-1.6-2.7
		c0.5-0.5,1.5-1,3.1-1.7c2.4-1,4.9-1.5,7.7-1.5c3.6,0,6.5,1,8.5,3c1.1,1.1,1.8,2.5,2.1,4.2c0.2,1,0.3,2.6,0.3,4.8V226.2z
		 M434.6,220.8v-10.5h-1.8c-9.2,0-13.8,2.4-13.8,7.1c0,1.7,0.5,3.1,1.6,4.2c1.2,1.2,3,1.8,5.3,1.8
		C428.1,223.4,431,222.5,434.6,220.8z"/>
	<path class="st4" d="M471.2,226.2h-3.9V208c0-2.5-0.1-4.2-0.2-5.1c-0.3-1.5-0.8-2.7-1.6-3.5c-1.2-1.2-2.8-1.8-4.9-1.8
		c-2,0-4.1,0.5-6.4,1.5c-1.7,0.7-2.8,1.2-3.1,1.6v25.5h-3.9V195h3.7v2.3c3.2-2,6.7-3.1,10.3-3.1c3.1,0,5.5,0.9,7.2,2.6
		c1.3,1.3,2.1,2.9,2.5,4.9c0.2,1.1,0.3,3,0.3,5.7V226.2z"/>
	<path class="st4" d="M505.1,195l-12.3,33.4c-1.6,4.5-3.4,7.7-5.4,9.6c-2,2-4.5,2.9-7.7,2.9c-1.5,0-3.4-0.4-5.6-1.1l1-3.2
		c1.8,0.5,3.3,0.8,4.4,0.8c2.2,0,3.9-0.6,5.2-1.9c1.3-1.3,2.8-4.1,4.6-8.5l-12.9-32h4.3l10.7,27l9.7-27H505.1z"/>
</g>
</svg>
